# xmcd CD database file
#
# Track frame offsets:
#	150
#	28345
#	51333
#	73032
#	92853
#	106960
#	125990
#	146105
#	171086
#	192765
#	209245
#	228190
#	251272
#	271033
#	288010
#	304329
#
# Disc length: 4388 seconds
#
# Revision: 1
# Processed by: cddbd v1.5.2PL0 Copyright (c) Steve Scherf et al.
# Submitted via: CDex 1.70beta2
#
DISCID=f5112210
DTITLE=Various Artist - Japan's Love 戀日情縁
DYEAR=1900
DGENRE=JPop
TTITLE0=流星雨
TTITLE1=風繼續吹
TTITLE2=夏日傾情
TTITLE3=讓我歡喜讓我憂
TTITLE4=餘情未了
TTITLE5=太陽星辰
TTITLE6=最愛
TTITLE7=暗戀你
TTITLE8=分手總要在雨天
TTITLE9=漫步人生路
TTITLE10=絕對空虛
TTITLE11=千千闕歌
TTITLE12=我會像你一樣儍
TTITLE13=無言地等
TTITLE14=Chotto 等等
TTITLE15=不來的季節
EXTD=¸s¬Peee
EXTT0=
EXTT1=
EXTT2=
EXTT3=
EXTT4=
EXTT5=
EXTT6=
EXTT7=
EXTT8=
EXTT9=
EXTT10=
EXTT11=
EXTT12=
EXTT13=
EXTT14=
EXTT15=
PLAYORDER=
